<svg xmlns="http://www.w3.org/2000/svg" viewBox="0 0 88.56 85.61"><defs><style>.cls-1{fill:none;stroke:#231f20;stroke-miterlimit:10;}</style></defs><g id="Layer_2" data-name="Layer 2"><g id="Layer_1-2" data-name="Layer 1"><path class="cls-1" d="M.6,65.19H9.45q1.56,8.43,2,9a6.79,6.79,0,0,0,3.18.67H23a70.53,70.53,0,0,0-5.7-11.59Q13.56,57,10.4,52.38A57.29,57.29,0,0,1,4.7,41.66a31.32,31.32,0,0,1-2.52-12,25.45,25.45,0,0,1,1.15-7.59,25,25,0,0,1,4.19-7.73,30.12,30.12,0,0,1,7.61-7A40.53,40.53,0,0,1,27.32,2.43,70.16,70.16,0,0,1,44.55.5H45a64.71,64.71,0,0,1,20.18,3Q73.72,6.42,78.09,11a31,31,0,0,1,6.36,9.23,24,24,0,0,1,2,9.49,31.76,31.76,0,0,1-2.52,12,53,53,0,0,1-5.71,10.69q-3.19,4.52-7,10.86a70.34,70.34,0,0,0-5.72,11.64h6.39c3,0,4.67-.13,5.1-.4s.84-1.28,1.23-3q.12-.37,1.11-6.28H88L84.39,85.11H58.32a4.1,4.1,0,0,1-2.52-.76,3.25,3.25,0,0,1-.71-2.43,35.46,35.46,0,0,1,3-13.34,79.83,79.83,0,0,1,6.68-13,80.24,80.24,0,0,0,6.65-12.8,34.11,34.11,0,0,0,3-13,17.23,17.23,0,0,0-1.32-6.65,21.56,21.56,0,0,0-4.39-6.45q-3.07-3.25-9.38-5.21a50.89,50.89,0,0,0-15.06-2,50.89,50.89,0,0,0-15.06,2q-6.3,2-9.34,5.21a22,22,0,0,0-4.37,6.42,17.16,17.16,0,0,0-1.32,6.68,34.37,34.37,0,0,0,3,13,85.43,85.43,0,0,0,6.65,13,85.16,85.16,0,0,1,6.68,13.06,35.09,35.09,0,0,1,3,13.25,3,3,0,0,1-.73,2.35,4.44,4.44,0,0,1-2.55.73h-26Z"/></g></g></svg>